<svg
  xmlns="http://www.w3.org/2000/svg"
  viewBox="0 0 805 388"
>
  <defs>
    <clipPath id="blackCarClip">
      <rect width="805" height="388" />
    </clipPath>
  </defs>

  <g id="blackCar" clip-path="url(#blackCarClip)">
    <path
      d="M802.978 264.685C796.065 188.52 712.115 168.738 712.115 168.738V131.151C716.066 113.345 701.25 119.282 701.25 119.282L497.793 114.336L494.831 43.1164C496.806 37.1802 530.385 26.3016 530.385 26.3016C362.485 -13.2673 174.831 3.55051 174.831 3.55051C63.2268 -0.406951 53.3511 33.2228 53.3511 33.2228C21.7451 68.8312 55.3268 181.596 55.3268 181.596C-31.5881 134.118 9.8936 316.12 9.8936 316.12C45.4481 301.284 44.4617 308.208 44.4617 308.208C49.3996 366.568 88.9056 382.395 88.9056 382.395C163.966 406.134 190.634 346.786 190.634 346.786C273.598 400.201 293.349 320.078 293.349 320.078C347.669 335.905 590.632 308.208 590.632 308.208C593.594 331.947 608.411 346.786 608.411 346.786C658.782 418.994 738.78 364.592 738.78 364.592C822.73 354.701 802.978 264.685 802.978 264.685ZM110.636 114.333C88.9085 116.312 99.7707 76.7462 99.7707 76.7462C100.757 42.1256 142.239 49.0497 142.239 49.0497L143.225 110.376L110.636 114.333ZM297.301 113.345L195.572 114.333L194.586 47.071H297.301V113.345ZM309.152 113.345L310.139 47.071L419.767 51.0285L421.743 112.355L309.149 113.343L309.152 113.345ZM479.028 109.388L443.473 113.345L444.459 68.8341C441.497 41.1377 479.028 42.1285 479.028 42.1285V109.388Z"
      fill="green"
    />
  </g>
</svg>
